<?xml version="1.0" encoding="utf-8"?>
<!-- Generator: Adobe Illustrator 22.0.1, SVG Export Plug-In . SVG Version: 6.00 Build 0)  -->
<svg version="1.1" id="Capa_1" xmlns="http://www.w3.org/2000/svg" xmlns:xlink="http://www.w3.org/1999/xlink" x="0px" y="0px"
	 viewBox="0 0 512 512" style="enable-background:new 0 0 512 512;" xml:space="preserve">
<style type="text/css">
	.st0{fill:url(#SVGID_1_);}
	.st1{fill:#E2EEFD;}
	.st2{fill:#707487;}
</style>
<linearGradient 
	id="SVGID_1_" 
	gradientTransform="rotate(35)"
	gradientUnits="userSpaceOnUse" x1="0" y1="256" x2="512" y2="256">
	<stop  offset="0" style="stop-color:#AC13E5"/>
	<stop  offset="1" style="stop-color:#16A3E2"/>
</linearGradient>
<path class="st0" d="M512,225v-61c0-2.7-2-5.1-4.7-5.5c-16.8-2.3-29.7-16.7-29.7-34.1c0,0,0,0,0-0.1c0-3.1-2.4-5.6-5.5-5.6H39.9
	c-3.1,0-5.5,2.5-5.5,5.6c0,0,0,0,0,0.1c0,17.4-12.9,31.8-29.7,34.1C2,158.9,0,161.3,0,164v61c0,2.7,1.9,5,4.6,5.4
	C16.7,232.6,26,243.2,26,256c0,12.8-9.2,23.4-21.4,25.6C1.9,282,0,284.3,0,287v61c0,2.7,2,5.1,4.7,5.5c16.8,2.3,29.7,16.7,29.7,34.1
	c0,0,0,0,0,0.1c0,3.1,2.4,5.6,5.5,5.6h432.2c3.1,0,5.5-2.5,5.5-5.6c0,0,0,0,0-0.1c0-17.4,12.9-31.8,29.7-34.1
	c2.7-0.4,4.7-2.7,4.7-5.5v-61c0-2.7-1.9-5-4.6-5.4c-12.2-2.2-21.4-12.8-21.4-25.6c0-12.8,9.2-23.4,21.4-25.6
	C510.1,230,512,227.7,512,225z"/>
<path class="st1" d="M431.7,356.3H80.3c-2.8,0-5.2-2.3-5.2-5.2V160.8c0-2.8,2.3-5.2,5.2-5.2h351.4c2.8,0,5.2,2.3,5.2,5.2v190.4
	C436.9,354,434.5,356.3,431.7,356.3z"/>
<g>
	<path class="st2" d="M143.1,215.9h-34.9c-3.9,0-7,3.3-7,7.3s3.1,7.3,7,7.3h10.2v53c0,4,3.2,7.1,7.4,7.1c4.1,0,7.4-3.1,7.4-7.1v-53
		h10c4,0,7-3.2,7-7.4C150.1,219.1,147.1,215.9,143.1,215.9z"/>
	<path class="st2" d="M166.5,215.9c-4.2,0-7.4,3-7.4,7v60.6c0,4,3.2,7.1,7.4,7.1c4.2,0,7.4-3,7.4-7.1v-60.6
		C173.8,218.9,170.7,215.9,166.5,215.9z"/>
	<path class="st2" d="M210.9,230.4c6.6,0,7.7,3.1,8,6.2c0.1,3.9,3.2,6.8,7.4,6.8c3.6,0,7.4-2.1,7.4-8.1c0-9.6-7.8-19.4-22.7-19.4
		c-14.3,0-23.1,9.1-23.1,23.6v27.9c0,14.6,8.8,23.6,22.8,23.6c15.1,0,22.9-9.8,22.9-19.4c0-6-3.8-8.1-7.4-8.1
		c-3.9,0-6.8,2.5-7.2,6.3c-0.7,4.2-1.1,6.7-7.7,6.7c-6.5,0-8.7-2.3-8.7-9.1v-27.9C202.5,233.8,203.9,230.4,210.9,230.4z"/>
	<path class="st2" d="M271.7,249.2l17-21.3c1.2-1.2,1.8-2.8,1.8-4.6c0-4-3.5-7.4-7.5-7.4c-2.3,0-4.3,1-5.6,2.8L259.7,241v-18.1
		c0-4-3.2-7-7.4-7c-4.2,0-7.4,3-7.4,7v60.6c0,4,3.2,7.1,7.4,7.1c4.2,0,7.4-3,7.4-7.1v-19.2l2.4-3l17.4,26c1.4,2.1,3.6,3.4,6,3.4
		c4.1,0,7.6-3.4,7.6-7.4c0-1.5-0.5-2.9-1.4-4.1L271.7,249.2z"/>
	<path class="st2" d="M339.8,230.4c3.9,0,7-3.2,7-7.4c0-4.1-3-7.2-7-7.2h-31.3c-4.1,0-7.3,3.1-7.3,7.1v60.5c0,4,3.2,7.1,7.3,7.1
		h31.3c4,0,7-3.1,7-7.2c0-4.1-3.1-7.4-7-7.4h-23.9v-15.7h8.8c3.9,0,7-3.1,7-7.1c0-4.1-3.1-7.3-7-7.3h-8.8v-15.6L339.8,230.4
		L339.8,230.4z"/>
	<path class="st2" d="M392.7,215.9h-34.9c-3.9,0-7,3.3-7,7.3s3.1,7.3,7,7.3H368v53c0,4,3.2,7.1,7.4,7.1c4.1,0,7.4-3.1,7.4-7.1v-53
		h10c4,0,7-3.2,7-7.4C399.7,219.1,396.7,215.9,392.7,215.9z"/>
</g>
</svg>
